<svg xmlns="http://www.w3.org/2000/svg" viewBox="0 0 64 64">
  <defs>
    <linearGradient id="page" x1="8" y1="56" x2="50" y2="8" gradientUnits="userSpaceOnUse">
      <stop stop-color="#031538"/>
      <stop offset="0.58" stop-color="#082c70"/>
      <stop offset="1" stop-color="#174fca"/>
    </linearGradient>
    <linearGradient id="pulse" x1="23" y1="45" x2="47" y2="20" gradientUnits="userSpaceOnUse">
      <stop stop-color="#2ef2ff"/>
      <stop offset="0.48" stop-color="#6ca7ff"/>
      <stop offset="1" stop-color="#b786ff"/>
    </linearGradient>
    <filter id="glow" x="-90%" y="-90%" width="280%" height="280%">
      <feGaussianBlur stdDeviation="2.4"/>
    </filter>
  </defs>
  <path d="M13 5.5h27l12 12V55a4 4 0 0 1-4 4H13a4 4 0 0 1-4-4V9.5a4 4 0 0 1 4-4Z" fill="url(#page)" stroke="#8eb6ff" stroke-width="1.4"/>
  <path d="M40 5.5v12h12" fill="#f8fbff" stroke="#8eb6ff" stroke-linejoin="round" stroke-width="1.4"/>
  <path d="M18 40h9l4-7 4 12 5-15h7" fill="none" stroke="#5ee9ff" stroke-linecap="round" stroke-linejoin="round" stroke-width="4" opacity=".55" filter="url(#glow)"/>
  <path d="M18 40h9l4-7 4 12 5-15h7" fill="none" stroke="url(#pulse)" stroke-linecap="round" stroke-linejoin="round" stroke-width="2.2"/>
  <circle cx="40" cy="30" r="2.8" fill="#e9fbff"/>
</svg>
